<?xml version="1.0" encoding="UTF-8"?> <svg xmlns="http://www.w3.org/2000/svg" id="Layer_2" data-name="Layer 2" viewBox="0 0 339.57 215.17"><defs><style> .cls-1 { fill: #a1206a; } .cls-2 { fill: #0074a3; } </style></defs><g id="Layer_2-2" data-name="Layer 2"><path class="cls-2" d="M49.22,135.64c0,.72-.36,1.08-1.08,1.08h-15.97c-.29,0-.55-.11-.76-.32-.21-.21-.32-.47-.32-.76V56.92c0-.29.11-.55.32-.76.21-.21.47-.32.76-.32h15.97c.72,0,1.08.36,1.08,1.08v78.72Z"></path><path class="cls-2" d="M58.96,57.36c-.16-.37-.13-.72.08-1.04.21-.32.51-.48.88-.48h12.62c3.7,0,6.29,1.7,7.78,5.11l19.44,44.27,21.4-48.74c.19-.43.51-.64.96-.64h17.49c.37,0,.67.16.88.48.21.32.24.67.08,1.04l-33.89,77.17c-1.12,2.55-3.42,3.83-6.91,3.83s-5.79-1.28-6.91-3.83L58.96,57.36Z"></path><path class="cls-2" d="M223.7,135.64c0,.72-.36,1.08-1.08,1.08h-4.27c-5.08,0-8.84-2.25-11.26-6.75-6.73,5.8-14.75,8.7-24.04,8.7-11.71,0-21.7-4.14-29.98-12.42-8.28-8.28-12.42-18.27-12.42-29.98s4.14-21.7,12.42-29.98c8.28-8.28,18.27-12.42,29.98-12.42,9.29,0,17.3,2.9,24.04,8.7,2.42-4.5,6.17-6.75,11.26-6.75h4.27c.72,0,1.08.36,1.08,1.08v78.72ZM158.79,96.28c0,6.71,2.37,12.43,7.11,17.17,4.74,4.74,10.46,7.11,17.17,7.11s12.43-2.37,17.17-7.11c4.74-4.74,7.11-10.46,7.11-17.17s-2.37-12.43-7.11-17.17c-4.74-4.74-10.46-7.11-17.17-7.11s-12.43,2.37-17.17,7.11c-4.74,4.74-7.11,10.46-7.11,17.17Z"></path><path class="cls-2" d="M255.44,135.64c0,.72-.36,1.08-1.08,1.08h-15.97c-.72,0-1.08-.36-1.08-1.08v-53.09c0-8.6,2.74-15.53,8.22-20.8,5.43-5.24,12.5-7.86,21.2-7.86,3.14,0,6.12.37,8.94,1.12.53.13.8.48.8,1.04v17.33c0,.45-.2.77-.6.96-.4.19-.77.15-1.12-.12-1.92-1.46-4.59-2.2-8.02-2.2-3.89,0-6.77.92-8.66,2.75-1.76,1.68-2.63,4.27-2.63,7.79v53.09Z"></path><path class="cls-2" d="M305.63,135.64c0,.72-.36,1.08-1.08,1.08h-15.97c-.29,0-.55-.11-.76-.32-.21-.21-.32-.47-.32-.76V56.92c0-.29.11-.55.32-.76.21-.21.47-.32.76-.32h15.97c.72,0,1.08.36,1.08,1.08v78.72Z"></path><path class="cls-1" d="M38.63,33.71c0-.49.4-.89.9-.9h.63c9.06,0,16.41-7.35,16.41-16.41S49.22,0,40.16,0c-.84,0-1.66.06-2.46.18-7.89,1.19-13.94,8-13.94,16.22,0,13.13,7.71,24.46,18.86,29.71.06.03.13.06.2.09.37.15.78.24,1.2.24,1.74,0,3.16-1.42,3.16-3.16,0-1.01-.47-1.9-1.21-2.48-.19-.15-4.89-3.53-7.14-6.54-.01-.01-.02-.03-.03-.04,0,0-.15-.2-.15-.5Z"></path><path class="cls-1" d="M298.09,12.73c0,.49-.4.89-.9.9h-.63c-9.06,0-16.41,7.35-16.41,16.41s7.34,16.41,16.41,16.41c.84,0,1.66-.06,2.46-.19,7.89-1.19,13.94-8,13.94-16.22,0-13.13-7.71-24.46-18.86-29.7-.07-.03-.13-.06-.2-.09-.37-.15-.78-.24-1.21-.24-1.74,0-3.16,1.42-3.16,3.16,0,1.01.48,1.91,1.21,2.48.19.15,4.89,3.53,7.14,6.54.01.01.02.03.03.04,0,0,.15.2.15.5Z"></path><path class="cls-2" d="M312.22,64.37c0-4.38,3.47-7.85,7.86-7.85s7.86,3.46,7.86,7.85-3.47,7.87-7.86,7.87-7.86-3.49-7.86-7.87ZM326.41,64.38c0-3.61-2.79-6.38-6.32-6.38s-6.33,2.77-6.33,6.38,2.8,6.4,6.33,6.4,6.32-2.79,6.32-6.4ZM320.33,65.05h-1.74v3.75h-1.58v-9.15h3.25c2.54,0,3.57.97,3.57,2.64,0,1.3-.65,2.2-1.87,2.54l1.96,3.97h-1.78l-1.81-3.75ZM320.14,63.68c1.44,0,2.13-.41,2.13-1.36s-.73-1.31-2.18-1.31h-1.49v2.67h1.55Z"></path><g><path class="cls-1" d="M20.62,204.54l-2.86-8.19H6.52l-2.86,8.19H0l10.33-28.52h3.65l10.29,28.52h-3.65ZM12.16,180.52l-4.54,12.68h9.03l-4.49-12.68Z"></path><path class="cls-1" d="M53.72,181.52c-.73-.42-1.28-.73-1.66-.92-.38-.2-.79-.36-1.24-.5-.53-.17-1.16-.31-1.89-.42-.73-.11-1.37-.17-1.93-.17-1.6,0-2.88.36-3.84,1.07s-1.45,1.66-1.45,2.83c0,.5.09.97.27,1.39.18.42.53.85,1.03,1.3.5.45,1.2.94,2.1,1.47.9.53,2.04,1.18,3.44,1.93,1.96,1.04,3.42,1.97,4.37,2.81.67.56,1.2,1.29,1.57,2.18.38.9.57,1.85.57,2.86,0,2.38-.82,4.26-2.46,5.65-1.64,1.39-3.86,2.08-6.66,2.08-1.88,0-3.58-.31-5.12-.92-.53-.2-1.04-.43-1.51-.71-.48-.28-1.16-.73-2.06-1.34l1.76-2.73c.78.53,1.39.92,1.83,1.15.43.24.89.46,1.37.65,1.26.48,2.59.71,3.99.71,1.65,0,2.94-.36,3.86-1.09s1.39-1.76,1.39-3.11c0-.84-.14-1.5-.42-1.97-.48-.9-1.26-1.65-2.35-2.27-.22-.14-.72-.41-1.49-.8-.77-.39-1.81-.95-3.13-1.68-2.1-1.12-3.61-2.25-4.54-3.4-.92-1.15-1.39-2.44-1.39-3.86,0-1.09.22-2.09.65-3,.43-.91,1.05-1.69,1.85-2.33.8-.64,1.76-1.14,2.9-1.49,1.13-.35,2.39-.52,3.76-.52.81,0,1.61.06,2.39.17.78.11,1.54.28,2.27.5.56.2,1.06.41,1.51.63.45.22,1.06.56,1.85,1.01l-1.6,2.86Z"></path><path class="cls-1" d="M74.68,205.09c-1.32-.08-2.24-.32-2.77-.71s-.84-1.04-.92-1.93c-.48.42-.85.73-1.13.95-.28.21-.57.4-.88.57-.59.34-1.24.6-1.95.8-.71.2-1.41.29-2.08.29-1.54,0-2.77-.46-3.7-1.36-.92-.91-1.39-2.12-1.39-3.63,0-1.4.36-2.55,1.08-3.44.72-.9,1.78-1.51,3.18-1.85l6.62-1.55v-3.44c0-1.57-1.21-2.35-3.63-2.35-1.94,0-2.91.55-2.91,1.64,0,.17.06.41.17.71l-3.21.67c-.14-.25-.23-.46-.27-.61-.04-.15-.06-.34-.06-.57,0-1.26.63-2.28,1.89-3.07,1.26-.78,2.91-1.18,4.96-1.18,1.93,0,3.45.42,4.56,1.26,1.11.84,1.66,2,1.66,3.49v11.68c.08.5.6.84,1.55,1.01l-.76,2.65ZM70.73,195.85l-7.18,1.85c-.23.45-.37.81-.44,1.07-.07.27-.11.6-.11.99,0,.76.23,1.36.7,1.81.46.45,1.09.67,1.88.67.37,0,.71-.03,1.04-.1.32-.07.68-.2,1.06-.38.38-.18.82-.43,1.31-.73.49-.31,1.08-.71,1.75-1.22v-3.95Z"></path><path class="cls-1" d="M94.08,188.16c.76,1.15,1.13,2.46,1.13,3.95,0,.98-.2,1.9-.59,2.77-.39.87-.92,1.62-1.6,2.27-.67.64-1.46,1.16-2.35,1.55-.9.39-1.85.59-2.86.59-.14,0-.3,0-.48-.02-.18-.01-.41-.03-.69-.06-.06,0-.14,0-.25-.02-.11-.01-.24-.02-.38-.02-.9.73-1.53,1.32-1.91,1.76-.38.45-.57.81-.57,1.09,0,.25.12.43.36.52.24.1.65.15,1.24.15h7.1c1.76,0,3.06.36,3.88,1.07.83.71,1.24,1.84,1.24,3.38,0,1.12-.27,2.16-.8,3.13-.53.97-1.27,1.81-2.21,2.54-.94.73-2.03,1.3-3.28,1.72s-2.58.63-4.01.63c-1.01,0-1.96-.12-2.86-.36-.9-.24-1.68-.57-2.35-.99-.67-.42-1.21-.91-1.62-1.47-.41-.56-.61-1.15-.61-1.76,0-.53.2-1.19.59-1.97.28-.53.59-1.02.92-1.47.34-.45.87-1.05,1.6-1.81-.98-.28-1.68-.59-2.1-.92s-.63-.78-.63-1.34c0-.62.3-1.29.9-2.04.6-.74,1.55-1.64,2.83-2.71-2.44-1.32-3.65-3.33-3.65-6.05,0-1.06.19-2.04.57-2.94.38-.9.9-1.67,1.58-2.31.67-.64,1.47-1.14,2.39-1.49.92-.35,1.95-.52,3.07-.52.34,0,.65.01.95.04.29.03.59.07.9.12.31.05.63.13.97.22.34.09.74.22,1.22.38h2.9l3.44-.29v2.69h-3.99ZM92.24,205.59h-7.07l-.63.97c-.61.95-1.03,1.66-1.26,2.12-.22.46-.33.87-.33,1.24,0,.73.42,1.32,1.26,1.76.84.45,1.9.67,3.18.67.95,0,1.87-.13,2.76-.4.89-.27,1.67-.62,2.34-1.05.67-.43,1.21-.94,1.61-1.53s.61-1.2.61-1.85c0-1.29-.82-1.93-2.47-1.93ZM91.43,190.28c-.22-.57-.53-1.07-.9-1.49s-.83-.76-1.37-1.01-1.09-.38-1.68-.38-1.13.13-1.64.38-.95.6-1.32,1.03c-.38.43-.68.94-.9,1.51-.22.57-.34,1.18-.34,1.83s.11,1.25.34,1.83c.22.57.53,1.08.9,1.51s.83.78,1.34,1.03,1.07.38,1.66.38,1.14-.12,1.66-.36c.52-.24.97-.57,1.34-1.01s.68-.94.9-1.51c.22-.57.34-1.2.34-1.87s-.11-1.29-.34-1.87Z"></path><path class="cls-1" d="M105.52,180.33c-.41.41-.89.61-1.45.61s-1.04-.2-1.45-.61c-.41-.41-.61-.89-.61-1.45s.2-1.04.61-1.45c.41-.41.89-.61,1.45-.61s1.04.2,1.45.61c.41.41.61.89.61,1.45s-.2,1.04-.61,1.45ZM102.48,204.54v-19.03h3.15v19.03h-3.15Z"></path><path class="cls-1" d="M126.61,203.51c-.21.13-.39.22-.53.27-1.6.87-3.36,1.3-5.29,1.3-1.46,0-2.78-.24-3.97-.71-1.19-.48-2.21-1.15-3.07-2.02-.85-.87-1.52-1.9-2-3.11-.48-1.2-.71-2.53-.71-3.99s.25-2.89.74-4.14c.49-1.25,1.18-2.32,2.06-3.23.88-.91,1.93-1.62,3.15-2.12,1.22-.5,2.55-.76,4.01-.76.95,0,1.89.12,2.81.37.62.17,1.13.35,1.55.56s.95.53,1.6.97l-1.81,2.55c-.73-.62-1.41-1.04-2.04-1.28-.63-.24-1.38-.36-2.25-.36-1.93,0-3.48.67-4.64,2-1.16,1.33-1.74,3.08-1.74,5.24s.59,3.93,1.79,5.2c1.19,1.28,2.81,1.92,4.85,1.92.92,0,1.72-.12,2.39-.36.67-.24,1.4-.65,2.18-1.24l1.64,2.48c-.28.17-.52.32-.73.44Z"></path><path class="cls-1" d="M147.73,198.93c-.49,1.22-1.16,2.28-2.02,3.19-.85.91-1.85,1.63-2.98,2.16-1.13.53-2.35.8-3.63.8s-2.51-.27-3.65-.8c-1.15-.53-2.15-1.25-3-2.16-.85-.91-1.53-1.97-2.02-3.19-.49-1.22-.73-2.51-.73-3.89s.24-2.67.73-3.88c.49-1.22,1.16-2.28,2.02-3.19.85-.91,1.85-1.63,3-2.16,1.15-.53,2.37-.8,3.65-.8s2.5.27,3.63.8c1.13.53,2.13,1.25,2.98,2.16.85.91,1.53,1.97,2.02,3.19.49,1.22.73,2.51.73,3.88s-.25,2.67-.73,3.89ZM144.56,192.21c-.31-.88-.73-1.64-1.26-2.29-.53-.64-1.16-1.15-1.87-1.53s-1.49-.57-2.33-.57-1.62.19-2.35.57c-.73.38-1.36.89-1.89,1.53-.53.64-.95,1.41-1.26,2.29-.31.88-.46,1.83-.46,2.83s.15,1.95.46,2.83c.31.88.73,1.65,1.26,2.29.53.64,1.16,1.16,1.89,1.53.73.38,1.51.57,2.35.57s1.62-.19,2.33-.57,1.34-.89,1.87-1.53c.53-.64.95-1.41,1.26-2.29.31-.88.46-1.83.46-2.83s-.15-1.95-.46-2.83Z"></path><path class="cls-1" d="M162.87,188.96c-.59-.5-1.04-.76-1.34-.76-1.15,0-2.65,1.67-4.49,5v11.34h-3.15v-19.03h3.15v3.44c.59-.76,1.11-1.39,1.57-1.89.46-.5.88-.91,1.26-1.22.38-.31.74-.52,1.07-.65s.69-.19,1.05-.19c.76,0,1.57.43,2.44,1.3l-1.55,2.65Z"></path><path class="cls-1" d="M197.61,181.57c-1.06-.73-2.13-1.26-3.19-1.6-1.06-.34-2.27-.5-3.61-.5-1.48,0-2.84.27-4.07.8-1.23.53-2.29,1.28-3.17,2.25-.88.97-1.58,2.11-2.08,3.44-.5,1.33-.76,2.79-.76,4.39,0,1.74.25,3.32.76,4.75.5,1.43,1.22,2.65,2.16,3.65.94,1.01,2.07,1.78,3.4,2.33,1.33.55,2.81.82,4.43.82,1.18,0,2.25-.1,3.23-.29.98-.2,2.03-.53,3.15-1.01l.97,2.69c-.42.2-.78.36-1.09.48-.31.13-.6.24-.88.34-.28.1-.56.19-.84.27-.28.08-.59.17-.92.25-.7.17-1.35.29-1.95.36-.6.07-1.23.1-1.87.1-2.1,0-4.03-.36-5.77-1.07-1.75-.71-3.25-1.71-4.51-3-1.25-1.29-2.23-2.82-2.92-4.6-.69-1.78-1.04-3.73-1.04-5.86,0-2.02.35-3.89,1.06-5.63.71-1.74,1.68-3.24,2.92-4.52,1.24-1.27,2.71-2.27,4.4-3,1.69-.73,3.54-1.09,5.52-1.09,1.76,0,3.5.31,5.21.92.62.22,1.13.45,1.53.67.41.22.96.57,1.66,1.05l-1.72,2.6Z"></path><path class="cls-1" d="M219.13,198.93c-.49,1.22-1.16,2.28-2.02,3.19-.85.91-1.85,1.63-2.98,2.16-1.13.53-2.34.8-3.63.8s-2.51-.27-3.65-.8-2.15-1.25-3-2.16c-.85-.91-1.53-1.97-2.02-3.19-.49-1.22-.74-2.51-.74-3.89s.25-2.67.74-3.88c.49-1.22,1.16-2.28,2.02-3.19.85-.91,1.85-1.63,3-2.16,1.15-.53,2.37-.8,3.65-.8s2.5.27,3.63.8c1.13.53,2.13,1.25,2.98,2.16.85.91,1.53,1.97,2.02,3.19.49,1.22.74,2.51.74,3.88s-.25,2.67-.74,3.89ZM215.96,192.21c-.31-.88-.73-1.64-1.26-2.29-.53-.64-1.16-1.15-1.87-1.53s-1.49-.57-2.33-.57-1.62.19-2.35.57c-.73.38-1.36.89-1.89,1.53-.53.64-.95,1.41-1.26,2.29-.31.88-.46,1.83-.46,2.83s.15,1.95.46,2.83c.31.88.73,1.65,1.26,2.29.53.64,1.16,1.16,1.89,1.53.73.38,1.51.57,2.35.57s1.62-.19,2.33-.57,1.34-.89,1.87-1.53c.53-.64.95-1.41,1.26-2.29.31-.88.46-1.83.46-2.83s-.15-1.95-.46-2.83Z"></path><path class="cls-1" d="M250.65,204.54v-13.48c0-.7-.01-1.17-.04-1.41-.03-.24-.11-.51-.25-.82-.14-.31-.38-.55-.73-.73-.35-.18-.75-.27-1.2-.27-.9,0-1.83.32-2.81.97-.98.64-2.18,1.71-3.61,3.19l-.88.92v11.63h-3.15v-13.48c0-.7-.01-1.17-.04-1.41-.03-.24-.11-.51-.25-.82-.14-.31-.38-.55-.74-.73-.35-.18-.75-.27-1.2-.27-.48,0-.97.09-1.49.27-.52.18-1.07.48-1.66.88-.59.41-1.22.93-1.89,1.58s-1.43,1.43-2.27,2.35v11.63h-3.15v-19.03h3.15v3.99c.34-.36.62-.67.84-.92.22-.25.43-.47.61-.65.18-.18.36-.35.55-.5.18-.15.38-.33.61-.52.73-.62,1.53-1.08,2.42-1.41.88-.32,1.77-.48,2.67-.48,3.11,0,4.76,1.51,4.96,4.54.34-.36.62-.67.84-.92.22-.25.43-.48.63-.67.2-.2.38-.37.57-.53.18-.15.38-.33.61-.52.73-.62,1.53-1.08,2.42-1.41.88-.32,1.77-.48,2.67-.48,3.33,0,5,1.76,5,5.29v14.24h-3.15Z"></path><path class="cls-1" d="M277.51,198.74c-.49,1.29-1.16,2.4-2.02,3.34-.85.94-1.88,1.67-3.07,2.18-1.19.52-2.48.78-3.88.78-1.01,0-1.86-.1-2.56-.29-.7-.2-1.36-.53-1.97-1.01v10.84h-3.15v-29.06h3.15v2.39c.81-.92,1.76-1.64,2.83-2.16,1.08-.52,2.22-.78,3.42-.78s2.25.23,3.23.69c.98.46,1.82,1.11,2.52,1.95.7.84,1.25,1.85,1.64,3.02.39,1.18.59,2.46.59,3.86,0,1.54-.25,2.95-.74,4.24ZM274.47,191.9c-.25-.81-.6-1.51-1.05-2.1-.45-.59-.99-1.04-1.62-1.36-.63-.32-1.31-.48-2.04-.48-.56,0-1.17.12-1.83.36-.66.24-1.28.55-1.87.94-.39.28-.72.56-.99.84-.27.28-.62.7-1.07,1.26v6.59c0,.81.02,1.35.06,1.62.04.27.15.55.31.86.62,1.09,1.89,1.64,3.82,1.64s3.63-.68,4.83-2.04c1.2-1.36,1.81-3.18,1.81-5.48,0-.95-.13-1.83-.38-2.65Z"></path><path class="cls-1" d="M297.15,205.09c-1.32-.08-2.24-.32-2.77-.71-.53-.39-.84-1.04-.92-1.93-.48.42-.85.73-1.13.95-.28.21-.57.4-.88.57-.59.34-1.24.6-1.95.8-.71.2-1.41.29-2.08.29-1.54,0-2.77-.46-3.7-1.36-.92-.91-1.39-2.12-1.39-3.63,0-1.4.36-2.55,1.08-3.44.72-.9,1.78-1.51,3.18-1.85l6.62-1.55v-3.44c0-1.57-1.21-2.35-3.63-2.35-1.94,0-2.91.55-2.91,1.64,0,.17.06.41.17.71l-3.21.67c-.14-.25-.23-.46-.27-.61-.04-.15-.06-.34-.06-.57,0-1.26.63-2.28,1.89-3.07,1.26-.78,2.91-1.18,4.96-1.18,1.93,0,3.45.42,4.56,1.26s1.66,2,1.66,3.49v11.68c.08.5.6.84,1.55,1.01l-.76,2.65ZM293.2,195.85l-7.18,1.85c-.23.45-.37.81-.44,1.07-.07.27-.11.6-.11.99,0,.76.23,1.36.7,1.81.46.45,1.09.67,1.88.67.37,0,.71-.03,1.03-.1.32-.07.68-.2,1.06-.38.38-.18.82-.43,1.31-.73.49-.31,1.08-.71,1.75-1.22v-3.95Z"></path><path class="cls-1" d="M316.34,204.54v-13.48c0-.64-.02-1.11-.06-1.39-.04-.28-.12-.56-.23-.84-.14-.31-.38-.55-.74-.73-.35-.18-.75-.27-1.2-.27-.48,0-.97.09-1.49.27-.52.18-1.07.48-1.66.88-.59.41-1.22.93-1.89,1.58s-1.43,1.43-2.27,2.35v11.63h-3.15v-19.03h3.15v3.99c.34-.36.62-.67.84-.92.22-.25.43-.47.61-.65.18-.18.36-.35.55-.5.18-.15.38-.33.61-.52.73-.62,1.53-1.08,2.42-1.41.88-.32,1.77-.48,2.67-.48,3.33,0,5,1.76,5,5.29v14.24h-3.15Z"></path><path class="cls-1" d="M332.09,205.59c-.45,1.18-.87,2.19-1.26,3.05-.39.85-.85,1.7-1.39,2.54-.2.31-.38.59-.55.86-.17.27-.36.55-.57.84-.21.29-.46.62-.74.99-.28.36-.62.8-1.01,1.3l-2.52-1.93c.48-.53.88-.99,1.22-1.39.34-.39.64-.76.9-1.11.27-.35.51-.71.74-1.09.22-.38.48-.82.76-1.32.25-.45.48-.88.69-1.28.21-.41.41-.83.61-1.26.2-.43.4-.92.61-1.45s.45-1.16.73-1.89l-7.06-16.93h3.53l4.58,11.63.63,1.85.42-1.85,3.91-11.63h3.23l-7.48,20.08Z"></path></g></g></svg> 